<?xml version="1.0" encoding="UTF-8" standalone="no"?>
<!DOCTYPE svg PUBLIC "-//W3C//DTD SVG 1.1//EN" "http://www.w3.org/Graphics/SVG/1.1/DTD/svg11.dtd">
<svg width="100%" height="100%" viewBox="0 0 165 165" version="1.1" xmlns="http://www.w3.org/2000/svg" xmlns:xlink="http://www.w3.org/1999/xlink" xml:space="preserve" style="fill-rule:evenodd;clip-rule:evenodd;stroke-linejoin:round;stroke-miterlimit:2;">
<path class="bg-letter" d="M30.382,128c-3.055,0 -5.685,-0.546 -7.89,-1.637c-2.204,-1.091 -4.245,-2.859 -6.122,-5.304l0,5.369l-16.37,0l0,-96.752l16.37,9.4l0,25.671c1.702,-2.183 3.809,-3.863 6.319,-5.042c2.51,-1.178 5.249,-1.768 8.217,-1.768c5.544,0 10.39,1.463 14.537,4.387c4.147,2.925 7.388,7.017 9.723,12.278c2.336,5.26 3.503,11.36 3.503,18.301c0,11.044 -2.499,19.655 -7.497,25.832c-4.998,6.177 -11.928,9.265 -20.79,9.265Zm-1.964,-15.65c4.453,0 7.868,-1.68 10.247,-5.041c2.38,-3.362 3.569,-8.164 3.569,-14.406c0,-6.242 -1.189,-11.033 -3.569,-14.373c-2.379,-3.339 -5.794,-5.009 -10.247,-5.009c-2.445,0 -4.758,0.535 -6.941,1.604c-2.182,1.07 -3.885,2.5 -5.107,4.289l0,27.043c1.353,1.921 3.012,3.383 4.976,4.387c1.965,1.004 4.322,1.506 7.072,1.506Z" style="fill:#100b00;fill-rule:nonzero;"/>
<path class="bg-letter" d="M91.827,154.323l-9.036,-13.686c6.373,-0.48 11.317,-1.2 14.831,-2.16c3.514,-0.961 5.969,-2.336 7.366,-4.126c1.397,-1.789 2.095,-4.125 2.095,-7.006l0,-4.845c-3.404,3.667 -8.206,5.5 -14.405,5.5c-5.806,0 -10.804,-1.408 -14.995,-4.223c-4.19,-2.816 -7.41,-6.854 -9.658,-12.114c-2.248,-5.26 -3.372,-11.514 -3.372,-18.76c0,-7.072 1.168,-13.227 3.503,-18.465c2.335,-5.238 5.609,-9.298 9.822,-12.179c4.212,-2.881 9.156,-4.322 14.831,-4.322c2.968,0 5.686,0.459 8.152,1.375c2.467,0.917 4.507,2.248 6.122,3.994l0,-3.797l16.305,0l0,60.895c0,5.937 -0.546,10.957 -1.637,15.061c-1.092,4.103 -2.87,7.464 -5.337,10.083c-2.466,2.62 -5.707,4.617 -9.723,5.992c-4.016,1.375 -8.971,2.302 -14.864,2.783Zm3.536,-41.973c2.313,0 4.485,-0.534 6.515,-1.604c2.03,-1.069 3.765,-2.521 5.205,-4.354l0,-26.978c-1.222,-1.702 -2.902,-3.11 -5.041,-4.223c-2.139,-1.113 -4.3,-1.67 -6.483,-1.67c-4.714,0 -8.305,1.648 -10.771,4.944c-2.467,3.296 -3.7,8.108 -3.7,14.438c0,4.103 0.557,7.607 1.67,10.51c1.113,2.902 2.739,5.118 4.878,6.646c2.139,1.528 4.715,2.291 7.727,2.291Z" style="fill:#100b00;fill-rule:nonzero;"/>
<path d="M130.642,31.48l0,-21.376l17.782,9.6l0,11.776l16.576,0l0,17.782l-16.576,0l0,21.377l-17.782,-9.6l0,-11.777l-16.576,0l0,-17.782l16.576,0Z" style="fill:#85cb33;"/>
<style>
<![CDATA[
    .bg-letter{
        fill: #000
    }
    @media (prefers-color-scheme: dark) {
        .bg-letter {
        fill: #fff;
        }  
    } 
]]>
</style>
</svg>